<mxfile host="app.diagrams.net" modified="2021-04-02T04:27:31.381Z" agent="5.0 (Windows NT 10.0; Win64; x64) AppleWebKit/537.36 (KHTML, like Gecko) Chrome/89.0.4389.90 Safari/537.36 Edg/89.0.774.63" etag="yGLI4I9APulrOaDdDxbS" version="14.5.1" type="github">
  <diagram id="QUzMeOpbfW3cwRHKZyZd" name="Page-1">
    <mxGraphModel dx="782" dy="1638" grid="1" gridSize="10" guides="1" tooltips="1" connect="1" arrows="1" fold="1" page="1" pageScale="1" pageWidth="827" pageHeight="1169" math="0" shadow="0">
      <root>
        <mxCell id="0" />
        <mxCell id="1" parent="0" />
        <mxCell id="Hh1LdAJzl79Spug9jRpX-3" value="" style="edgeStyle=orthogonalEdgeStyle;rounded=0;orthogonalLoop=1;jettySize=auto;html=1;" parent="1" source="Hh1LdAJzl79Spug9jRpX-1" target="Hh1LdAJzl79Spug9jRpX-2" edge="1">
          <mxGeometry relative="1" as="geometry" />
        </mxCell>
        <mxCell id="Hh1LdAJzl79Spug9jRpX-1" value="授权页面" style="rounded=0;whiteSpace=wrap;html=1;" parent="1" vertex="1">
          <mxGeometry x="320" y="120" width="120" height="60" as="geometry" />
        </mxCell>
        <mxCell id="ftXRpWPEJPhyPNJFyAa6-7" value="" style="edgeStyle=orthogonalEdgeStyle;rounded=0;orthogonalLoop=1;jettySize=auto;html=1;" parent="1" source="Hh1LdAJzl79Spug9jRpX-2" target="ftXRpWPEJPhyPNJFyAa6-4" edge="1">
          <mxGeometry relative="1" as="geometry" />
        </mxCell>
        <mxCell id="ftXRpWPEJPhyPNJFyAa6-11" value="" style="edgeStyle=orthogonalEdgeStyle;rounded=0;orthogonalLoop=1;jettySize=auto;html=1;" parent="1" source="Hh1LdAJzl79Spug9jRpX-2" target="ftXRpWPEJPhyPNJFyAa6-10" edge="1">
          <mxGeometry relative="1" as="geometry" />
        </mxCell>
        <mxCell id="Hh1LdAJzl79Spug9jRpX-2" value="1. 展示用户信息（/v1/profile）&lt;br&gt;2. 展示应用信息（&amp;nbsp;/v1/oidc/application）" style="rounded=0;whiteSpace=wrap;html=1;" parent="1" vertex="1">
          <mxGeometry x="320" y="240" width="120" height="60" as="geometry" />
        </mxCell>
        <mxCell id="ftXRpWPEJPhyPNJFyAa6-3" value="" style="edgeStyle=orthogonalEdgeStyle;rounded=0;orthogonalLoop=1;jettySize=auto;html=1;" parent="1" source="ftXRpWPEJPhyPNJFyAa6-21" target="Hh1LdAJzl79Spug9jRpX-1" edge="1">
          <mxGeometry relative="1" as="geometry" />
        </mxCell>
        <mxCell id="ftXRpWPEJPhyPNJFyAa6-2" value="&lt;b&gt;&lt;font style=&quot;font-size: 18px&quot;&gt;第三方应用&lt;/font&gt;&lt;/b&gt;" style="rounded=1;whiteSpace=wrap;html=1;" parent="1" vertex="1">
          <mxGeometry x="320" y="-20" width="120" height="60" as="geometry" />
        </mxCell>
        <mxCell id="ftXRpWPEJPhyPNJFyAa6-9" value="" style="edgeStyle=orthogonalEdgeStyle;rounded=0;orthogonalLoop=1;jettySize=auto;html=1;" parent="1" source="ftXRpWPEJPhyPNJFyAa6-4" target="ftXRpWPEJPhyPNJFyAa6-8" edge="1">
          <mxGeometry relative="1" as="geometry" />
        </mxCell>
        <mxCell id="ftXRpWPEJPhyPNJFyAa6-4" value="点击授权按钮（&amp;nbsp;/v1/oidc/authorize）" style="rounded=0;whiteSpace=wrap;html=1;" parent="1" vertex="1">
          <mxGeometry x="320" y="360" width="120" height="60" as="geometry" />
        </mxCell>
        <mxCell id="ftXRpWPEJPhyPNJFyAa6-8" value="&lt;b&gt;&lt;font style=&quot;font-size: 18px&quot;&gt;第三方应用&lt;/font&gt;&lt;/b&gt;" style="rounded=1;whiteSpace=wrap;html=1;" parent="1" vertex="1">
          <mxGeometry x="320" y="480" width="120" height="60" as="geometry" />
        </mxCell>
        <mxCell id="ftXRpWPEJPhyPNJFyAa6-16" value="" style="edgeStyle=orthogonalEdgeStyle;rounded=0;orthogonalLoop=1;jettySize=auto;html=1;" parent="1" source="ftXRpWPEJPhyPNJFyAa6-10" target="ftXRpWPEJPhyPNJFyAa6-15" edge="1">
          <mxGeometry relative="1" as="geometry" />
        </mxCell>
        <mxCell id="ftXRpWPEJPhyPNJFyAa6-10" value="登录/注册页面" style="rounded=0;whiteSpace=wrap;html=1;" parent="1" vertex="1">
          <mxGeometry x="550" y="200" width="120" height="60" as="geometry" />
        </mxCell>
        <mxCell id="ftXRpWPEJPhyPNJFyAa6-12" value="如果发现未登录" style="text;html=1;align=center;verticalAlign=middle;resizable=0;points=[];autosize=1;" parent="1" vertex="1">
          <mxGeometry x="450" y="240" width="100" height="20" as="geometry" />
        </mxCell>
        <mxCell id="ftXRpWPEJPhyPNJFyAa6-17" style="edgeStyle=orthogonalEdgeStyle;rounded=0;orthogonalLoop=1;jettySize=auto;html=1;entryX=1;entryY=0.75;entryDx=0;entryDy=0;" parent="1" source="ftXRpWPEJPhyPNJFyAa6-15" target="Hh1LdAJzl79Spug9jRpX-2" edge="1">
          <mxGeometry relative="1" as="geometry" />
        </mxCell>
        <mxCell id="ftXRpWPEJPhyPNJFyAa6-15" value="完成登录注册" style="whiteSpace=wrap;html=1;rounded=0;" parent="1" vertex="1">
          <mxGeometry x="550" y="290" width="120" height="60" as="geometry" />
        </mxCell>
        <mxCell id="ftXRpWPEJPhyPNJFyAa6-20" value="携带参数返回" style="text;html=1;strokeColor=none;fillColor=none;align=center;verticalAlign=middle;whiteSpace=wrap;rounded=0;" parent="1" vertex="1">
          <mxGeometry x="480" y="310" width="40" height="20" as="geometry" />
        </mxCell>
        <mxCell id="ftXRpWPEJPhyPNJFyAa6-21" value="https://xxx.com/oidc/authorize?appKey=key&amp;amp;redirect_uri=https://www.baidu.com/&amp;amp;response_type=code&amp;amp;scope=all" style="text;html=1;strokeColor=none;fillColor=none;align=center;verticalAlign=middle;whiteSpace=wrap;rounded=0;" parent="1" vertex="1">
          <mxGeometry x="360" y="70" width="40" height="20" as="geometry" />
        </mxCell>
        <mxCell id="ftXRpWPEJPhyPNJFyAa6-22" value="" style="edgeStyle=orthogonalEdgeStyle;rounded=0;orthogonalLoop=1;jettySize=auto;html=1;" parent="1" source="ftXRpWPEJPhyPNJFyAa6-2" target="ftXRpWPEJPhyPNJFyAa6-21" edge="1">
          <mxGeometry relative="1" as="geometry">
            <mxPoint x="380" y="60" as="sourcePoint" />
            <mxPoint x="380" y="120" as="targetPoint" />
          </mxGeometry>
        </mxCell>
      </root>
    </mxGraphModel>
  </diagram>
</mxfile>
